<svg width="631" height="633" viewBox="0 0 631 633" fill="none" xmlns="http://www.w3.org/2000/svg">
<path d="M378.288 7.15517C379.04 7.31824 379.791 7.48131 380.566 7.64931C404.754 12.9103 429.151 21.0566 451.288 32.1552C452.121 32.567 452.955 32.9789 453.813 33.4032C480.603 46.7255 505.085 63.1022 527.288 83.1552C527.852 83.6576 528.417 84.16 528.998 84.6776C540.851 95.2361 551.443 106.699 561.288 119.155C562.054 120.103 562.82 121.05 563.609 122.026C589.01 154.085 608.932 192.53 619.288 232.155C619.676 233.509 620.067 234.862 620.46 236.214C623.231 245.946 625.271 255.756 627.038 265.718C627.249 266.875 627.46 268.033 627.677 269.226C630.45 285.495 630.498 301.943 630.476 318.405C630.475 319.304 630.474 320.203 630.473 321.129C630.313 392.318 604.459 467.788 555.589 520.643C553.737 522.666 551.945 524.716 550.159 526.796C545.667 531.941 540.865 536.763 536.038 541.593C535.16 542.483 534.283 543.373 533.378 544.29C527.331 550.35 521.007 555.855 514.288 561.155C513.68 561.643 513.072 562.13 512.445 562.633C486.442 583.415 456.978 600.012 425.681 611.266C423.237 612.174 420.836 613.162 418.429 614.163C356.048 639.279 272.826 638.307 210.288 614.155C209.456 613.836 208.624 613.517 207.767 613.189C184.778 604.26 162.539 593.288 142.288 579.155C141.677 578.733 141.067 578.31 140.437 577.875C136.339 575.033 132.298 572.12 128.288 569.155C127.737 568.749 127.185 568.344 126.617 567.926C119.365 562.562 112.587 556.859 106.007 550.69C103.702 548.541 101.365 546.459 98.9757 544.405C93.3608 539.521 88.2549 534.256 83.4093 528.612C81.7729 526.717 80.1192 524.844 78.4484 522.979C53.0375 494.431 33.1793 461.477 20.152 425.526C19.4203 423.518 18.6531 421.522 17.8781 419.53C11.8179 403.63 7.52317 386.737 4.89371 369.936C4.42765 367.026 3.8873 364.174 3.28433 361.292C-1.14515 339.346 0.134431 316.381 0.288241 294.155C19.4282 294.155 38.5682 294.155 58.2882 294.155C58.2882 291.185 58.2882 288.215 58.2882 285.155C58.5227 283.002 58.8094 280.854 59.1632 278.718C59.3257 277.708 59.4881 276.699 59.6554 275.659C63.5842 253.905 68.3424 230.047 78.2882 210.155C81.8664 210.796 84.2786 212.289 87.2726 214.315C88.2072 214.944 89.1418 215.572 90.1046 216.22C91.0727 216.879 92.0408 217.538 93.0382 218.218C94.0218 218.881 95.0053 219.544 96.0187 220.227C98.4454 221.865 100.868 223.508 103.288 225.155C102.573 229.867 101.305 233.998 99.5382 238.405C85.6502 274.762 82.0676 318.95 90.2882 357.155C90.4492 357.971 90.6102 358.787 90.776 359.628C94.7058 379.409 101.138 398.836 111.277 416.32C111.686 417.035 112.094 417.75 112.515 418.487C112.882 419.103 113.249 419.719 113.627 420.354C114.483 422.686 114.175 423.863 113.288 426.155C111.39 428.015 111.39 428.015 108.913 429.905C107.571 430.934 107.571 430.934 106.202 431.983C105.241 432.7 104.279 433.417 103.288 434.155C102.285 434.913 101.282 435.671 100.249 436.452C92.5843 442.155 92.5843 442.155 90.2882 442.155C83.3418 428.039 76.8194 413.887 71.2882 399.155C70.8293 397.969 70.3704 396.783 69.8976 395.561C61.7594 373.104 58.5484 348.888 57.2882 325.155C47.7182 324.825 38.1482 324.495 28.2882 324.155C32.5384 379.615 46.021 431.533 78.9694 477.31C80.2503 479.102 81.5014 480.911 82.7453 482.729C88.9743 491.765 95.9595 499.997 103.288 508.155C103.769 508.694 104.251 509.233 104.746 509.788C114.87 521.108 125.259 531.849 137.288 541.155C137.865 541.609 138.442 542.062 139.037 542.529C149.311 550.584 159.997 557.611 171.288 564.155C172.398 564.801 172.398 564.801 173.531 565.46C221.482 593.178 271.272 602.872 326.288 602.155C327.114 602.148 327.94 602.141 328.791 602.133C377.262 601.491 427.969 584.798 468.288 558.155C468.924 557.737 469.561 557.319 470.216 556.888C482.867 548.528 494.901 539.469 506.066 529.194C508.084 527.343 510.142 525.557 512.226 523.78C520.207 516.797 527.449 509.277 534.023 500.956C535.838 498.712 537.699 496.569 539.624 494.421C543.478 490.038 546.843 485.387 550.163 480.593C550.772 479.716 551.38 478.84 552.008 477.937C560.549 465.534 567.84 452.758 574.288 439.155C574.617 438.471 574.945 437.788 575.284 437.083C593.42 399.084 601.624 357.757 601.663 315.843C601.665 314.943 601.667 314.044 601.67 313.118C601.665 297.494 600.632 282.093 597.351 266.78C597.194 266.008 597.038 265.236 596.876 264.44C588.269 222.812 572.65 185.137 547.905 150.632C546.288 148.155 546.288 148.155 546.288 146.155C538.558 151.74 530.903 157.414 523.288 163.155C525.755 167.945 528.466 172.465 531.556 176.881C552.463 206.993 565.221 242.622 570.898 278.679C571.137 280.196 571.385 281.712 571.648 283.225C582.284 344.765 562.114 412.691 526.89 463.158C512.835 482.854 496.485 501.344 477.288 516.155C475.819 517.333 475.819 517.333 474.319 518.534C456.336 532.844 436.501 544.382 415.288 553.155C412.351 550.608 410.921 547.766 409.214 544.3C408.632 543.127 408.051 541.953 407.451 540.745C406.834 539.486 406.218 538.227 405.601 536.968C404.97 535.692 404.339 534.417 403.707 533.142C402.463 530.629 401.222 528.115 399.984 525.599C397.847 521.258 395.696 516.924 393.538 512.593C393.228 511.964 392.918 511.335 392.598 510.688C391.285 508.045 389.93 505.617 388.288 503.155C383.914 503.562 380.08 504.51 375.913 505.905C323.384 522.506 267.376 516.989 218.371 492.346C206.363 486.064 195.706 478.827 185.8 469.515C182.929 466.818 179.955 464.264 176.944 461.725C175.138 460.013 173.727 458.181 172.288 456.155C169.162 457.606 166.505 459.359 163.741 461.413C162.897 462.038 162.053 462.663 161.183 463.308C160.31 463.958 159.437 464.609 158.538 465.28C157.65 465.939 156.762 466.598 155.847 467.276C153.659 468.9 151.472 470.526 149.288 472.155C153.389 480.983 162.923 487.975 170.288 494.155C171.072 494.84 171.856 495.524 172.663 496.229C211.202 529.091 264.804 544.348 314.663 544.405C315.709 544.407 315.709 544.407 316.776 544.409C333.297 544.402 349.181 542.272 365.292 538.706C368.054 538.198 370.493 538.114 373.288 538.155C375.275 541.734 377.251 545.319 379.226 548.905C379.79 549.921 380.354 550.937 380.935 551.983C381.473 552.963 382.011 553.943 382.566 554.952C383.063 555.853 383.561 556.753 384.073 557.682C385.148 559.87 385.819 561.774 386.288 564.155C353.242 570.855 353.242 570.855 337.288 572.155C336.245 572.265 335.203 572.374 334.128 572.487C330.847 572.805 327.582 573.004 324.288 573.155C323.552 573.189 322.816 573.223 322.058 573.258C296.465 574.262 269.91 571.211 245.288 564.155C244.06 563.819 244.06 563.819 242.807 563.476C224.132 558.362 206.359 551.287 189.288 542.155C188.132 541.542 186.976 540.928 185.784 540.296C155.072 523.385 127.856 498.161 108.288 469.155C109.603 466.142 110.844 464.43 113.491 462.491C114.135 462.014 114.778 461.537 115.441 461.045C116.479 460.295 116.479 460.295 117.538 459.53C118.254 459.003 118.97 458.476 119.707 457.933C124.825 454.177 129.994 450.493 135.176 446.827C141.347 442.444 147.323 437.812 153.288 433.155C152.899 432.57 152.51 431.985 152.109 431.382C136.325 407.161 125.014 381.757 118.476 353.593C118.269 352.701 118.061 351.809 117.848 350.89C107.754 305.333 118.523 255.614 140.288 215.155C139.703 214.876 139.117 214.597 138.514 214.309C136.426 213.226 134.586 212.049 132.671 210.686C131.989 210.203 131.306 209.719 130.603 209.221C129.881 208.704 129.158 208.187 128.413 207.655C127.66 207.121 126.907 206.586 126.131 206.035C122.574 203.507 119.024 200.967 115.48 198.421C114.312 197.582 113.144 196.744 111.976 195.905C111.416 195.503 110.856 195.101 110.278 194.687C104.706 190.706 99.0156 186.91 93.2882 183.155C94.7336 177.828 97.2112 173.914 100.351 169.468C100.843 168.763 101.336 168.058 101.843 167.332C115.547 147.918 132.53 129.773 151.288 115.155C152.39 114.265 153.49 113.373 154.589 112.479C162.467 106.113 170.616 100.392 179.288 95.1552C180.039 94.695 180.79 94.2348 181.564 93.7606C195.26 85.4202 209.315 78.8695 224.288 73.1552C225.046 72.8592 225.803 72.5632 226.584 72.2582C236.923 68.2681 247.615 65.7983 258.413 63.4052C259.081 63.256 259.748 63.1069 260.435 62.9532C270.337 60.7601 280.21 59.2583 290.288 58.1552C291.216 58.045 292.144 57.9347 293.1 57.8212C319.917 54.8068 348.184 57.5994 374.288 64.1552C374.944 64.3163 375.6 64.4774 376.275 64.6435C380.64 65.725 384.965 66.92 389.288 68.1552C391.073 68.6386 391.073 68.6386 392.894 69.1317C420.607 77.1153 446.779 91.2482 469.851 108.405C470.518 108.901 471.185 109.396 471.872 109.906C475.645 112.759 479.029 115.727 482.288 119.155C474.754 125.024 467.183 130.773 459.288 136.155C456.01 134.652 453.292 132.758 450.413 130.593C406.999 98.805 353.204 82.3542 299.288 86.1552C297.803 86.6502 297.803 86.6502 296.288 87.1552C294.238 87.3478 292.188 87.5363 290.135 87.6984C229.597 92.6373 177.722 123.876 137.663 168.268C136.074 170.449 135.195 172.623 134.288 175.155C135.313 175.831 136.338 176.506 137.394 177.202C138.754 178.103 140.115 179.004 141.476 179.905C142.149 180.349 142.823 180.792 143.517 181.249C146.516 183.239 149.308 185.173 152.027 187.546C154.106 189.35 154.106 189.35 156.351 189.175C158.954 187.805 160.393 186.094 162.288 183.843C187.716 154.724 224.072 129.598 262.288 121.155C263.608 121.155 264.928 121.155 266.288 121.155C266.288 130.725 266.288 140.295 266.288 150.155C263.298 151.228 260.307 152.3 257.226 153.405C233.293 162.35 213.175 175.176 194.288 192.155C193.601 192.769 192.914 193.382 192.206 194.015C182.857 202.86 175.671 214.082 169.288 225.155C168.88 225.859 168.473 226.562 168.052 227.287C162.84 236.325 157.792 245.298 154.288 255.155C153.877 256.299 153.877 256.299 153.457 257.465C146.691 276.526 144.048 294.427 143.976 314.593C143.972 315.263 143.968 315.933 143.964 316.624C143.928 329.397 145.378 341.717 148.538 354.093C148.754 354.942 148.971 355.791 149.193 356.666C152.598 369.567 158.137 381.389 164.269 393.186C165.258 395.096 166.225 397.015 167.191 398.936C174.642 413.573 183.827 426.411 195.288 438.155C195.929 438.858 196.57 439.56 197.23 440.284C212.205 456.294 233.794 467.977 254.288 475.155C254.404 474.143 254.52 473.131 254.64 472.089C255.279 468.214 256.299 464.893 257.663 461.218C258.108 460.01 258.553 458.802 259.011 457.558C259.432 456.435 259.854 455.312 260.288 454.155C260.617 453.27 260.946 452.384 261.284 451.472C261.945 449.697 262.616 447.926 263.288 446.155C262.258 446.01 262.258 446.01 261.206 445.862C257.705 445.014 254.745 443.546 251.601 441.843C250.633 441.319 250.633 441.319 249.646 440.785C235.855 433.155 223.361 424.386 212.288 413.155C211.095 411.978 211.095 411.978 209.878 410.776C198.774 399.203 190.884 384.662 184.288 370.155C184.006 369.545 183.724 368.935 183.433 368.306C170.648 340.242 168.511 303.416 178.288 274.155C178.617 273.111 178.617 273.111 178.953 272.046C190.569 235.569 216.934 204.956 250.75 187.282C265.163 180.049 280.285 175.933 296.288 174.155C296.618 154.685 296.948 135.215 297.288 115.155C322.549 114.851 346.081 114.95 370.369 122.563C372.086 123.093 373.817 123.574 375.55 124.05C397.387 130.173 418.665 140.895 436.288 155.155C437.197 155.862 438.106 156.568 439.042 157.296C450.128 166.064 459.597 176.029 468.288 187.155C469.077 188.127 469.866 189.099 470.679 190.1C477.734 198.953 483.648 208.349 489.288 218.155C489.722 218.905 490.155 219.656 490.602 220.429C505.47 246.49 515.32 275.895 514.288 306.155C507.865 305.645 501.569 304.76 495.226 303.655C494.463 303.525 493.701 303.394 492.915 303.259C487.411 302.278 487.411 302.278 486.288 301.155C485.815 298.136 485.385 295.12 484.976 292.093C483.655 282.921 481.917 274.042 479.288 265.155C479.094 264.495 478.9 263.835 478.7 263.155C471.351 238.89 457.658 217.434 440.288 199.155C439.073 197.744 437.864 196.328 436.663 194.905C433.176 190.917 429.39 187.501 425.288 184.155C424.364 183.393 423.44 182.632 422.487 181.847C395.518 160.098 361.59 147.585 327.288 144.155C327.288 154.055 327.288 163.955 327.288 174.155C330.918 174.485 334.548 174.815 338.288 175.155C352.234 177.297 364.591 182.113 377.288 188.155C378.44 188.699 378.44 188.699 379.614 189.254C390.836 194.637 400.615 201.355 410.288 209.155C411.151 209.832 412.013 210.509 412.902 211.206C432.673 227.606 445.648 253.787 452.288 278.155C452.719 279.665 452.719 279.665 453.159 281.206C462.479 315.585 455.307 353.474 438.288 384.155C437.735 385.197 437.182 386.238 436.612 387.311C418.607 419.97 387.328 440.984 352.601 452.53C343.374 455.166 332.934 457.538 323.288 457.155C324.315 447.077 326.022 435.966 331.288 427.155C335.498 424.413 339.276 423.926 344.224 423.451C347.826 422.935 351.105 421.609 354.476 420.28C355.148 420.021 355.82 419.761 356.512 419.494C383.732 408.815 405.411 388.994 417.266 361.922C425.187 342.735 426.864 324.76 427.288 304.155C424.829 304.756 422.371 305.36 419.913 305.968C419.184 306.148 418.454 306.328 417.703 306.514C412.875 307.72 408.123 309.063 403.402 310.64C400.973 311.232 398.779 311.242 396.288 311.155C396.335 312.101 396.381 313.048 396.429 314.022C397.187 336.446 390.058 356.207 375.288 373.155C360.717 388.3 338.578 397.984 317.55 398.447C307.151 398.53 298.183 397.293 288.288 394.155C287.318 393.878 286.347 393.601 285.347 393.315C265.299 386.983 249.314 370.685 239.601 352.593C229.963 332.212 227.439 308.743 234.988 287.153C238.466 277.839 242.993 269.896 249.288 262.155C249.95 261.285 249.95 261.285 250.624 260.397C261.682 246.223 280.194 235.903 297.788 232.78C322.946 229.804 348.121 235.347 368.421 250.776C369.744 251.862 371.025 253 372.288 254.155C368.867 256.436 366.255 256.98 362.241 257.847C361.552 257.997 360.863 258.147 360.152 258.302C358.694 258.618 357.234 258.931 355.775 259.242C353.559 259.713 351.345 260.194 349.132 260.677C331.546 264.477 331.546 264.477 324.194 262.651C308.438 259.962 294.405 262.966 281.288 272.155C270.672 279.824 263.849 291.962 260.679 304.581C258.161 321.173 262.656 336.524 272.288 350.155C280.395 360.698 293.368 366.883 306.288 368.843C307.62 368.964 308.954 369.068 310.288 369.155C311.011 369.22 311.735 369.284 312.48 369.35C326.631 370.05 340.198 364.32 350.898 355.409C360.247 346.595 365.759 333.963 366.527 321.186C366.761 311.431 365.814 303.369 362.288 294.155C361.615 292.158 360.946 290.158 360.288 288.155C362.225 287.693 364.163 287.236 366.101 286.78C367.18 286.525 368.259 286.27 369.37 286.007C372.363 285.33 375.367 284.776 378.39 284.245C386.103 282.867 393.719 281.055 401.349 279.278C407.993 277.767 414.486 276.613 421.288 276.155C408.815 247.376 388.401 223.823 358.788 211.843C351.409 209.047 343.947 207.017 336.288 205.155C335.104 204.798 333.919 204.441 332.698 204.073C307.035 197.717 278.614 205.469 256.116 217.909C240.896 227.174 228.859 239.255 219.288 254.155C218.646 255.148 218.004 256.14 217.343 257.163C212.83 264.489 209.943 271.994 207.288 280.155C206.99 280.992 206.693 281.828 206.386 282.69C202.701 293.085 201.849 303.159 201.851 314.155C201.849 315.182 201.849 315.182 201.846 316.229C201.866 327.572 203.248 337.519 207.288 348.155C207.672 349.291 208.057 350.427 208.452 351.597C214.174 367.77 222.999 382.147 235.288 394.155C235.839 394.74 236.389 395.326 236.956 395.929C253.461 413.324 277.519 421.798 300.288 427.155C298.801 433.426 296.959 439.525 294.976 445.655C294.349 447.607 293.723 449.559 293.097 451.511C292.636 452.944 292.636 452.944 292.167 454.407C290.937 458.254 289.736 462.11 288.538 465.968C286.85 471.386 285.11 476.78 283.288 482.155C282.958 483.145 282.628 484.135 282.288 485.155C284.206 485.124 284.206 485.124 286.163 485.093C289.36 485.088 292.431 485.254 295.601 485.655C339.313 490.317 386.985 476.733 421.288 449.155C426.066 445.277 430.712 441.268 435.288 437.155C436.394 436.177 436.394 436.177 437.523 435.179C461.686 412.513 476.282 377.909 483.288 346.155C483.438 345.479 483.587 344.803 483.741 344.107C484.618 340.129 485.465 336.145 486.288 332.155C494.723 332.671 502.742 334.175 510.976 336.03C513.447 336.575 515.918 337.118 518.39 337.659C519.572 337.918 520.755 338.178 521.973 338.445C527.455 339.619 532.96 340.632 538.48 341.612C541.288 342.155 541.288 342.155 544.288 343.155C544.66 272.357 529.192 213.532 481.288 159.155C482.625 156.043 483.881 154.424 486.675 152.526C487.359 152.054 488.042 151.582 488.747 151.096C489.482 150.6 490.218 150.104 490.976 149.593C492.525 148.525 494.073 147.456 495.62 146.386C496.402 145.847 497.184 145.309 497.99 144.754C501.425 142.364 504.797 139.892 508.163 137.405C509.381 136.508 510.598 135.611 511.816 134.714C512.394 134.287 512.973 133.86 513.569 133.42C517.794 130.311 522.043 127.236 526.288 124.155C524.882 120.975 523.21 118.82 520.761 116.362C519.705 115.3 519.705 115.3 518.628 114.217C517.877 113.475 517.125 112.732 516.351 111.968C515.577 111.201 514.804 110.434 514.007 109.644C508.363 104.102 502.574 98.9625 496.288 94.1552C495.027 93.155 493.767 92.1536 492.507 91.1513C451.281 58.6327 402.113 38.7597 350.288 31.1552C349.515 31.0366 348.743 30.918 347.946 30.7958C325.689 27.4838 301.527 27.7848 279.288 31.1552C278.259 31.3111 277.229 31.4671 276.169 31.6278C224.573 39.7048 175.663 58.3265 135.288 92.1552C134.195 93.0564 133.101 93.9575 132.007 94.8583C122.177 103.013 112.139 111.375 103.937 121.198C102.082 123.4 100.125 125.486 98.1632 127.593C75.9772 152.235 59.0167 181.241 47.2882 212.155C46.9884 212.931 46.6885 213.707 46.3796 214.506C40.3084 230.433 37.0832 247.386 34.2882 264.155C25.0482 264.155 15.8082 264.155 6.28824 264.155C6.28824 233.57 19.0221 203.248 32.2882 176.155C32.9852 174.687 33.6807 173.219 34.3742 171.749C41.4701 156.906 50.2514 142.974 60.0719 129.789C61.2725 128.176 62.4582 126.552 63.6437 124.929C69.3118 117.273 75.6083 110.35 82.1867 103.468C84.0612 101.5 85.7713 99.5503 87.4718 97.4208C89.1797 95.2905 90.8812 93.644 92.9757 91.9052C96.0057 89.3224 98.8257 86.6348 101.601 83.7802C106.513 78.8179 111.807 74.4706 117.288 70.1552C118.299 69.3508 119.309 68.5464 120.351 67.7177C138.521 53.3888 158.498 40.9701 179.4 31.0521C181.289 30.1546 183.17 29.24 185.05 28.3231C243.159 0.247835 315.421 -7.2541 378.288 7.15517Z" fill="white"/>
</svg>
